<svg xmlns="http://www.w3.org/2000/svg" xmlns:xlink="http://www.w3.org/1999/xlink" width="16" height="16" viewBox="0 0 16 16">
    <defs>
        <path id="nypmerv3oa" d="M7.012 12.252l-.001-3.26H3.745c-.547 0-.991-.445-.99-.992-.002-.547.442-.99.99-.99H7.01V3.745c0-.548.443-.992.99-.99.547-.001.992.443.991.99l.002 3.266h3.26c.546 0 .99.444.99.992 0 .547-.444.99-.99.99h-3.26v3.26c.001.547-.443.99-.99.99-.547 0-.991-.444-.991-.99z"/>
    </defs>
    <g fill="white" fill-rule="evenodd">
        <g>
            <mask id="gs5y2fgjib" fill="#fff">
                <use xlink:href="#nypmerv3oa"/>
            </mask>
            <use fill="white" xlink:href="#nypmerv3oa"/>
            <g fill="white" mask="url(#gs5y2fgjib)">
                <g>
                    <path d="M0 0H23V23H0z"/>
                </g>
            </g>
        </g>
    </g>
</svg>
